<?xml version="1.0" encoding="utf-8"?>
<!-- Generator: Adobe Illustrator 21.0.2, SVG Export Plug-In . SVG Version: 6.00 Build 0)  -->
<svg version="1.1" id="Layer_1" xmlns="http://www.w3.org/2000/svg" xmlns:xlink="http://www.w3.org/1999/xlink" x="0px" y="0px"
	 viewBox="0 0 1432.5 936.4" style="enable-background:new 0 0 1432.5 936.4;" xml:space="preserve">
<path d="M320,1c208.3,0,287.2,149.7,487.4,151.8c95.9,1,238.5-66.9,366.1-81.9c138.6-16.3,258.5,23,258.5,105.9
	c0,112.6-154.3,14.9-235.2,98.9s-5.1,110.6-5.1,110.6v167.9h-161.8c0,0-110.4,134.3,93,178.1c123.4,26.6,20.2,182.2-165.8,124.9
	s-153.7-65.5-216.4-63.5c-62.7,2-204.3,142.7-420.7,142.7S0.5,828.4,0.5,480.4S119.8,1,320,1z"/>
</svg>
